<svg width="45" height="35" viewBox="0 0 45 35" fill="none" xmlns="http://www.w3.org/2000/svg">
<path d="M5.016 12.072C4.184 12.072 3.432 11.888 2.76 11.52C2.096 11.152 1.572 10.644 1.188 9.996C0.812 9.34 0.624 8.608 0.624 7.8C0.624 6.992 0.812 6.264 1.188 5.616C1.572 4.96 2.1 4.448 2.772 4.08C3.444 3.712 4.196 3.528 5.028 3.528C5.652 3.528 6.228 3.632 6.756 3.84C7.284 4.048 7.732 4.352 8.1 4.752L7.536 5.316C6.88 4.652 6.052 4.32 5.052 4.32C4.388 4.32 3.784 4.472 3.24 4.776C2.696 5.08 2.268 5.496 1.956 6.024C1.652 6.552 1.5 7.144 1.5 7.8C1.5 8.456 1.652 9.048 1.956 9.576C2.268 10.104 2.696 10.52 3.24 10.824C3.784 11.128 4.388 11.28 5.052 11.28C6.06 11.28 6.888 10.944 7.536 10.272L8.1 10.836C7.732 11.236 7.28 11.544 6.744 11.76C6.216 11.968 5.64 12.072 5.016 12.072ZM12.1118 12.06C11.5038 12.06 10.9558 11.924 10.4678 11.652C9.97975 11.372 9.59575 10.988 9.31575 10.5C9.03575 10.012 8.89575 9.46 8.89575 8.844C8.89575 8.228 9.03575 7.676 9.31575 7.188C9.59575 6.7 9.97975 6.32 10.4678 6.048C10.9558 5.776 11.5038 5.64 12.1118 5.64C12.7198 5.64 13.2678 5.776 13.7558 6.048C14.2438 6.32 14.6238 6.7 14.8958 7.188C15.1758 7.676 15.3158 8.228 15.3158 8.844C15.3158 9.46 15.1758 10.012 14.8958 10.5C14.6238 10.988 14.2438 11.372 13.7558 11.652C13.2678 11.924 12.7198 12.06 12.1118 12.06ZM12.1118 11.304C12.5598 11.304 12.9598 11.204 13.3118 11.004C13.6718 10.796 13.9518 10.504 14.1518 10.128C14.3518 9.752 14.4518 9.324 14.4518 8.844C14.4518 8.364 14.3518 7.936 14.1518 7.56C13.9518 7.184 13.6718 6.896 13.3118 6.696C12.9598 6.488 12.5598 6.384 12.1118 6.384C11.6638 6.384 11.2598 6.488 10.8998 6.696C10.5478 6.896 10.2678 7.184 10.0598 7.56C9.85975 7.936 9.75975 8.364 9.75975 8.844C9.75975 9.324 9.85975 9.752 10.0598 10.128C10.2678 10.504 10.5478 10.796 10.8998 11.004C11.2598 11.204 11.6638 11.304 12.1118 11.304ZM22.8152 3.096V12H21.9992V10.752C21.7432 11.176 21.4032 11.5 20.9792 11.724C20.5632 11.948 20.0912 12.06 19.5632 12.06C18.9712 12.06 18.4352 11.924 17.9552 11.652C17.4752 11.38 17.0992 11 16.8272 10.512C16.5552 10.024 16.4192 9.468 16.4192 8.844C16.4192 8.22 16.5552 7.664 16.8272 7.176C17.0992 6.688 17.4752 6.312 17.9552 6.048C18.4352 5.776 18.9712 5.64 19.5632 5.64C20.0752 5.64 20.5352 5.748 20.9432 5.964C21.3592 6.172 21.6992 6.48 21.9632 6.888V3.096H22.8152ZM19.6352 11.304C20.0752 11.304 20.4712 11.204 20.8232 11.004C21.1832 10.796 21.4632 10.504 21.6632 10.128C21.8712 9.752 21.9752 9.324 21.9752 8.844C21.9752 8.364 21.8712 7.936 21.6632 7.56C21.4632 7.184 21.1832 6.896 20.8232 6.696C20.4712 6.488 20.0752 6.384 19.6352 6.384C19.1872 6.384 18.7832 6.488 18.4232 6.696C18.0712 6.896 17.7912 7.184 17.5832 7.56C17.3832 7.936 17.2832 8.364 17.2832 8.844C17.2832 9.324 17.3832 9.752 17.5832 10.128C17.7912 10.504 18.0712 10.796 18.4232 11.004C18.7832 11.204 19.1872 11.304 19.6352 11.304ZM25.188 5.688H26.04V12H25.188V5.688ZM25.62 4.308C25.444 4.308 25.296 4.248 25.176 4.128C25.056 4.008 24.996 3.864 24.996 3.696C24.996 3.536 25.056 3.396 25.176 3.276C25.296 3.156 25.444 3.096 25.62 3.096C25.796 3.096 25.944 3.156 26.064 3.276C26.184 3.388 26.244 3.524 26.244 3.684C26.244 3.86 26.184 4.008 26.064 4.128C25.944 4.248 25.796 4.308 25.62 4.308ZM31.6267 5.64C32.4187 5.64 33.0467 5.872 33.5107 6.336C33.9827 6.792 34.2187 7.46 34.2187 8.34V12H33.3667V8.424C33.3667 7.768 33.2027 7.268 32.8747 6.924C32.5467 6.58 32.0787 6.408 31.4707 6.408C30.7907 6.408 30.2507 6.612 29.8507 7.02C29.4587 7.42 29.2627 7.976 29.2627 8.688V12H28.4107V5.688H29.2267V6.852C29.4587 6.468 29.7787 6.172 30.1867 5.964C30.6027 5.748 31.0827 5.64 31.6267 5.64ZM42.3992 5.688V11.232C42.3992 12.304 42.1352 13.096 41.6072 13.608C41.0872 14.128 40.2992 14.388 39.2432 14.388C38.6592 14.388 38.1032 14.3 37.5752 14.124C37.0552 13.956 36.6312 13.72 36.3032 13.416L36.7352 12.768C37.0392 13.04 37.4072 13.252 37.8392 13.404C38.2792 13.556 38.7392 13.632 39.2192 13.632C40.0192 13.632 40.6072 13.444 40.9832 13.068C41.3592 12.7 41.5472 12.124 41.5472 11.34V10.536C41.2832 10.936 40.9352 11.24 40.5032 11.448C40.0792 11.656 39.6072 11.76 39.0872 11.76C38.4952 11.76 37.9552 11.632 37.4672 11.376C36.9872 11.112 36.6072 10.748 36.3272 10.284C36.0552 9.812 35.9192 9.28 35.9192 8.688C35.9192 8.096 36.0552 7.568 36.3272 7.104C36.6072 6.64 36.9872 6.28 37.4672 6.024C37.9472 5.768 38.4872 5.64 39.0872 5.64C39.6232 5.64 40.1072 5.748 40.5392 5.964C40.9712 6.18 41.3192 6.492 41.5832 6.9V5.688H42.3992ZM39.1712 11.004C39.6272 11.004 40.0392 10.908 40.4072 10.716C40.7752 10.516 41.0592 10.24 41.2592 9.888C41.4672 9.536 41.5712 9.136 41.5712 8.688C41.5712 8.24 41.4672 7.844 41.2592 7.5C41.0592 7.148 40.7752 6.876 40.4072 6.684C40.0472 6.484 39.6352 6.384 39.1712 6.384C38.7152 6.384 38.3032 6.48 37.9352 6.672C37.5752 6.864 37.2912 7.136 37.0832 7.488C36.8832 7.84 36.7832 8.24 36.7832 8.688C36.7832 9.136 36.8832 9.536 37.0832 9.888C37.2912 10.24 37.5752 10.516 37.9352 10.716C38.3032 10.908 38.7152 11.004 39.1712 11.004Z" fill="black"/>
<path d="M27.957 20.4531C27.7891 20.6992 27.6016 20.9941 27.3945 21.3379C27.1875 21.6816 26.9668 22.0664 26.7324 22.4922C26.5332 22.8477 26.3359 23.2266 26.1406 23.6289C25.9492 24.0273 25.7656 24.4238 25.5898 24.8184C25.4141 25.209 25.252 25.5859 25.1035 25.9492C24.9551 26.3086 24.8262 26.627 24.7168 26.9043C24.6074 27.1777 24.5215 27.3984 24.459 27.5664C24.3965 27.7305 24.3652 27.8145 24.3652 27.8184C24.3262 27.916 24.2559 27.9648 24.1543 27.9648C24.1035 27.9648 24.0586 27.9492 24.0195 27.918C23.9805 27.8828 23.9551 27.8398 23.9434 27.7891C23.9434 27.7852 23.9238 27.7031 23.8848 27.543C23.8496 27.3789 23.8008 27.1621 23.7383 26.8926C23.6758 26.6191 23.6035 26.3066 23.5215 25.9551C23.4434 25.5996 23.3594 25.2305 23.2695 24.8477C23.1836 24.4609 23.0957 24.0703 23.0059 23.6758C22.916 23.2812 22.832 22.9062 22.7539 22.5508C22.4922 23.2891 22.2285 23.9434 21.9629 24.5137C21.7012 25.0801 21.4316 25.5742 21.1543 25.9961C20.877 26.4141 20.5898 26.7656 20.293 27.0508C20 27.3359 19.6914 27.5664 19.3672 27.7422C19.0469 27.9141 18.709 28.0371 18.3535 28.1113C18.002 28.1855 17.6289 28.2227 17.2344 28.2227C17.0312 28.2227 16.8145 28.1992 16.584 28.1523C16.3535 28.1094 16.125 28.041 15.8984 27.9473C15.6719 27.8535 15.4551 27.7363 15.248 27.5957C15.041 27.4551 14.8574 27.2891 14.6973 27.0977C14.5371 26.9023 14.4102 26.6836 14.3164 26.4414C14.2227 26.1953 14.1758 25.9219 14.1758 25.6211C14.1758 25.3047 14.2422 25.0156 14.375 24.7539C14.5078 24.4883 14.6875 24.2617 14.9141 24.0742C15.1406 23.8828 15.4023 23.7344 15.6992 23.6289C16 23.5234 16.3164 23.4707 16.6484 23.4707C16.8906 23.4707 17.1074 23.4922 17.2988 23.5352C17.4941 23.5742 17.666 23.625 17.8145 23.6875C17.9629 23.75 18.0898 23.8184 18.1953 23.8926C18.3008 23.9668 18.3887 24.0352 18.459 24.0977C18.5293 24.1602 18.5801 24.2148 18.6113 24.2617C18.6426 24.3047 18.6602 24.3262 18.6641 24.3262C18.6875 24.3691 18.6992 24.4102 18.6992 24.4492C18.6992 24.5039 18.6777 24.5547 18.6348 24.6016C18.5957 24.6484 18.543 24.6719 18.4766 24.6719C18.3984 24.6719 18.3359 24.6387 18.2891 24.5723C18.2852 24.5684 18.2539 24.5332 18.1953 24.4668C18.1367 24.3965 18.041 24.3203 17.9082 24.2383C17.7754 24.1562 17.6035 24.082 17.3926 24.0156C17.1855 23.9492 16.9316 23.916 16.6309 23.916C16.3574 23.916 16.0977 23.959 15.8516 24.0449C15.6094 24.127 15.3965 24.2441 15.2129 24.3965C15.0332 24.5488 14.8887 24.7305 14.7793 24.9414C14.6738 25.1484 14.6211 25.377 14.6211 25.627C14.6211 25.873 14.6621 26.0977 14.7441 26.3008C14.8262 26.5039 14.9355 26.6855 15.0723 26.8457C15.209 27.0059 15.3672 27.1445 15.5469 27.2617C15.7266 27.3789 15.9141 27.4766 16.1094 27.5547C16.3047 27.6289 16.5 27.6855 16.6953 27.7246C16.8945 27.7598 17.082 27.7773 17.2578 27.7773C17.5547 27.7773 17.8438 27.7559 18.125 27.7129C18.4102 27.666 18.6895 27.5801 18.9629 27.4551C19.2402 27.3301 19.5117 27.1582 19.7773 26.9395C20.043 26.7207 20.3066 26.4355 20.5684 26.084C20.8301 25.7324 21.0879 25.3086 21.3418 24.8125C21.5996 24.3164 21.8574 23.7305 22.1152 23.0547C22.1934 22.8516 22.2695 22.6328 22.3438 22.3984C22.418 22.1641 22.4941 21.9277 22.5723 21.6895C22.5059 21.3457 22.457 21.0527 22.4258 20.8105C22.3984 20.5684 22.3848 20.3672 22.3848 20.207C22.3848 20.0352 22.3984 19.8984 22.4258 19.7969C22.4531 19.6953 22.4883 19.6191 22.5312 19.5684C22.5742 19.5137 22.6211 19.4805 22.6719 19.4688C22.7227 19.4531 22.7715 19.4453 22.8184 19.4453C22.8574 19.4453 22.9004 19.4531 22.9473 19.4688C22.998 19.4844 23.043 19.5195 23.082 19.5742C23.125 19.625 23.1602 19.7012 23.1875 19.8027C23.2148 19.9043 23.2285 20.041 23.2285 20.2129C23.2285 20.4004 23.2109 20.6172 23.1758 20.8633C23.1406 21.1094 23.0879 21.3809 23.0176 21.6777C23.0684 21.916 23.127 22.1816 23.1934 22.4746C23.2598 22.7676 23.3281 23.0723 23.3984 23.3887C23.4688 23.7012 23.541 24.0215 23.6152 24.3496C23.6895 24.6777 23.7617 24.998 23.832 25.3105C23.9023 25.623 23.9688 25.9219 24.0312 26.207C24.0977 26.4922 24.1582 26.75 24.2129 26.9805C24.3184 26.7148 24.4473 26.3945 24.5996 26.0195C24.752 25.6406 24.9219 25.2402 25.1094 24.8184C25.2969 24.3926 25.4941 23.9609 25.7012 23.5234C25.9121 23.082 26.127 22.666 26.3457 22.2754C26.6543 21.7207 26.9375 21.2461 27.1953 20.8516C27.4531 20.4531 27.6758 20.125 27.8633 19.8672C28.0508 19.6094 28.1973 19.4199 28.3027 19.2988C28.4121 19.1738 28.4707 19.1055 28.4785 19.0938C28.5215 19.0508 28.5742 19.0293 28.6367 19.0293C28.7031 19.0293 28.7559 19.0527 28.7949 19.0996C28.8379 19.1426 28.8594 19.1934 28.8594 19.252C28.8594 19.2793 28.8535 19.3066 28.8418 19.334C28.8418 19.3379 28.8184 19.3965 28.7715 19.5098C28.7285 19.6191 28.6719 19.7715 28.6016 19.9668C28.5352 20.1582 28.4609 20.3848 28.3789 20.6465C28.2969 20.9043 28.2168 21.1836 28.1387 21.4844C28.0605 21.7812 27.9902 22.0938 27.9277 22.4219C27.8691 22.7461 27.8262 23.0703 27.7988 23.3945C27.7871 23.543 27.7773 23.6992 27.7695 23.8633C27.7617 24.0234 27.7578 24.1855 27.7578 24.3496C27.7578 24.6074 27.7695 24.8672 27.793 25.1289C27.8164 25.3906 27.8555 25.6426 27.9102 25.8848C27.9648 26.127 28.0391 26.3555 28.1328 26.5703C28.2266 26.7812 28.3418 26.9668 28.4785 27.127C28.6152 27.2871 28.7773 27.416 28.9648 27.5137C29.1562 27.6113 29.377 27.6641 29.627 27.6719C29.6895 27.6758 29.7383 27.7031 29.7734 27.7539C29.8125 27.8008 29.832 27.8516 29.832 27.9062C29.832 27.9609 29.8105 28.0098 29.7676 28.0527C29.7246 28.0957 29.6738 28.1172 29.6152 28.1172C29.5527 28.1172 29.4902 28.1113 29.4277 28.0996C29.1465 28.0605 28.8984 27.9805 28.6836 27.8594C28.4688 27.7344 28.2832 27.582 28.127 27.4023C27.9707 27.2188 27.8398 27.0117 27.7344 26.7812C27.6328 26.5469 27.5508 26.2969 27.4883 26.0312C27.4258 25.7656 27.3809 25.4902 27.3535 25.2051C27.3301 24.916 27.3184 24.625 27.3184 24.332C27.3184 23.9844 27.3359 23.6367 27.3711 23.2891C27.4062 22.9414 27.4531 22.6035 27.5117 22.2754C27.5703 21.9434 27.6387 21.623 27.7168 21.3145C27.7949 21.0059 27.875 20.7188 27.957 20.4531ZM34.7012 26.3652C34.6855 26.3965 34.6523 26.4629 34.6016 26.5645C34.5547 26.6621 34.4922 26.7754 34.4141 26.9043C34.3398 27.0332 34.252 27.168 34.1504 27.3086C34.0488 27.4492 33.9355 27.5781 33.8105 27.6953C33.6855 27.8125 33.5508 27.9102 33.4062 27.9883C33.2617 28.0625 33.1094 28.0996 32.9492 28.0996C32.7227 28.0996 32.5312 28.0273 32.375 27.8828C32.2227 27.7383 32.1113 27.5566 32.041 27.3379C31.9082 27.5605 31.75 27.7383 31.5664 27.8711C31.3828 28 31.1992 28.0645 31.0156 28.0645C30.8711 28.0645 30.7402 28.0391 30.623 27.9883C30.5059 27.9336 30.4062 27.8594 30.3242 27.7656C30.2422 27.668 30.1777 27.5547 30.1309 27.4258C30.0879 27.2969 30.0664 27.1562 30.0664 27.0039C30.0664 26.6992 30.1172 26.4316 30.2188 26.2012C30.3242 25.9668 30.457 25.7715 30.6172 25.6152C30.7773 25.459 30.9531 25.3418 31.1445 25.2637C31.3398 25.1855 31.5273 25.1465 31.707 25.1465C31.8281 25.1465 31.9395 25.1641 32.041 25.1992C32.1426 25.2305 32.2285 25.2656 32.2988 25.3047C32.373 25.3438 32.4297 25.3809 32.4688 25.416C32.5078 25.4473 32.5293 25.4648 32.5332 25.4688C32.5762 25.5195 32.5977 25.5723 32.5977 25.627C32.5977 25.6855 32.5762 25.7383 32.5332 25.7852C32.4902 25.8281 32.4395 25.8496 32.3809 25.8496C32.3184 25.8496 32.2656 25.8281 32.2227 25.7852C32.2148 25.7773 32.1973 25.7637 32.1699 25.7441C32.1426 25.7207 32.1055 25.6973 32.0586 25.6738C32.0117 25.6504 31.9551 25.6309 31.8887 25.6152C31.8262 25.5957 31.7539 25.5859 31.6719 25.5859C31.5508 25.5859 31.4219 25.6133 31.2852 25.668C31.1484 25.7227 31.0234 25.8086 30.9102 25.9258C30.7969 26.0391 30.7012 26.1836 30.623 26.3594C30.5488 26.5312 30.5117 26.7363 30.5117 26.9746C30.5117 27.0488 30.5195 27.125 30.5352 27.2031C30.5508 27.2773 30.5781 27.3457 30.6172 27.4082C30.6562 27.4707 30.709 27.5215 30.7754 27.5605C30.8418 27.5996 30.9238 27.6191 31.0215 27.6191C31.0918 27.6191 31.1719 27.5957 31.2617 27.5488C31.3555 27.502 31.4434 27.4297 31.5254 27.332C31.6113 27.2344 31.6875 27.1113 31.7539 26.9629C31.8242 26.8145 31.873 26.6387 31.9004 26.4355C31.9082 26.3809 31.9336 26.3359 31.9766 26.3008C32.0195 26.2617 32.0703 26.2422 32.1289 26.2422C32.1836 26.2422 32.2305 26.2637 32.2695 26.3066C32.3125 26.3496 32.3359 26.3984 32.3398 26.4531C32.3438 26.5273 32.3516 26.6328 32.3633 26.7695C32.375 26.9023 32.4004 27.0352 32.4395 27.168C32.4824 27.3008 32.5449 27.416 32.627 27.5137C32.709 27.6113 32.8223 27.6602 32.9668 27.6602C33.0605 27.6602 33.1523 27.6348 33.2422 27.584C33.3359 27.5332 33.4258 27.4668 33.5117 27.3848C33.6016 27.2988 33.6855 27.2031 33.7637 27.0977C33.8457 26.9883 33.9199 26.8789 33.9863 26.7695C34.0527 26.6602 34.1113 26.5547 34.1621 26.4531C34.2129 26.3516 34.2559 26.2637 34.291 26.1895C34.3105 26.1465 34.3379 26.1133 34.373 26.0898C34.4121 26.0664 34.4531 26.0547 34.4961 26.0547C34.5625 26.0547 34.6152 26.0801 34.6543 26.1309C34.6973 26.1777 34.7188 26.2285 34.7188 26.2832C34.7188 26.3105 34.7129 26.3379 34.7012 26.3652ZM36.418 28.5742C37.1523 27.6172 37.6621 26.8223 37.9473 26.1895C37.9668 26.1465 37.9922 26.1152 38.0234 26.0957C38.0586 26.0723 38.0977 26.0605 38.1406 26.0605C38.207 26.0605 38.2617 26.084 38.3047 26.1309C38.3477 26.1738 38.3691 26.2246 38.3691 26.2832C38.3691 26.3105 38.3633 26.3379 38.3516 26.3652C38.1797 26.7559 37.9355 27.1914 37.6191 27.6719C37.3027 28.1523 36.9023 28.6953 36.418 29.3008C36.418 29.5469 36.4199 29.793 36.4238 30.0391C36.4277 30.2852 36.4297 30.5547 36.4297 30.8477C36.4297 31.1406 36.4219 31.4297 36.4062 31.7148C36.3945 32.0039 36.3711 32.2773 36.3359 32.5352C36.3008 32.7969 36.252 33.0371 36.1895 33.2559C36.1309 33.4785 36.0527 33.6699 35.9551 33.8301C35.8613 33.9941 35.7461 34.1211 35.6094 34.2109C35.4766 34.3047 35.3184 34.3516 35.1348 34.3516C34.873 34.3516 34.6719 34.252 34.5312 34.0527C34.3906 33.8535 34.3203 33.5703 34.3203 33.2031C34.3203 33.0078 34.3379 32.7949 34.373 32.5645C34.4121 32.3379 34.4668 32.1035 34.5371 31.8613C34.6074 31.6191 34.6914 31.373 34.7891 31.123C34.8906 30.877 35.002 30.6367 35.123 30.4023C35.2441 30.168 35.375 29.9434 35.5156 29.7285C35.6602 29.5137 35.8125 29.3184 35.9727 29.1426C35.9766 28.8691 35.9785 28.5977 35.9785 28.3281C35.9824 28.0586 35.9883 27.8105 35.9961 27.584C35.8789 27.7324 35.7383 27.8496 35.5742 27.9355C35.4141 28.0215 35.2539 28.0645 35.0938 28.0645C34.957 28.0645 34.832 28.0391 34.7188 27.9883C34.6094 27.9336 34.5156 27.8594 34.4375 27.7656C34.3594 27.668 34.2988 27.5547 34.2559 27.4258C34.2129 27.2969 34.1914 27.1562 34.1914 27.0039C34.1914 26.6992 34.2422 26.4316 34.3438 26.2012C34.4492 25.9668 34.582 25.7715 34.7422 25.6152C34.9023 25.459 35.0781 25.3418 35.2695 25.2637C35.4648 25.1855 35.6523 25.1465 35.832 25.1465C35.9531 25.1465 36.0645 25.1621 36.166 25.1934C36.2676 25.2246 36.3535 25.2598 36.4238 25.2988C36.498 25.3379 36.5547 25.375 36.5938 25.4102C36.6328 25.4453 36.6543 25.4648 36.6582 25.4688C36.7012 25.5156 36.7227 25.5684 36.7227 25.627C36.7227 25.6855 36.7012 25.7383 36.6582 25.7852C36.6152 25.8281 36.5645 25.8496 36.5059 25.8496C36.4512 25.8496 36.3984 25.8281 36.3477 25.7852C36.332 25.7734 36.3105 25.7578 36.2832 25.7383C36.2598 25.7148 36.2266 25.6914 36.1836 25.668C36.1445 25.6445 36.0957 25.625 36.0371 25.6094C35.9824 25.5938 35.916 25.5859 35.8379 25.5859C35.7207 25.5859 35.5918 25.6133 35.4512 25.668C35.3105 25.7188 35.1797 25.8008 35.0586 25.9141C34.9375 26.0273 34.8359 26.1738 34.7539 26.3535C34.6719 26.5293 34.6309 26.7422 34.6309 26.9922C34.6309 27.1797 34.6719 27.332 34.7539 27.4492C34.8359 27.5625 34.9629 27.6191 35.1348 27.6191C35.2168 27.6191 35.3027 27.5957 35.3926 27.5488C35.4863 27.502 35.5762 27.4297 35.6621 27.332C35.748 27.2344 35.8223 27.1113 35.8848 26.9629C35.9512 26.8145 35.998 26.6387 36.0254 26.4355C36.0332 26.3809 36.0586 26.3359 36.1016 26.3008C36.1445 26.2617 36.1953 26.2422 36.2539 26.2422C36.3203 26.2422 36.3711 26.2656 36.4062 26.3125C36.4453 26.3594 36.4648 26.4121 36.4648 26.4707C36.4648 26.4746 36.4629 26.5352 36.459 26.6523C36.4551 26.7656 36.4512 26.918 36.4473 27.1094C36.4434 27.3008 36.4375 27.5234 36.4297 27.7773C36.4258 28.0273 36.4219 28.293 36.418 28.5742ZM35.9727 29.8574C35.7891 30.1113 35.623 30.3867 35.4746 30.6836C35.3262 30.9844 35.1992 31.2871 35.0938 31.5918C34.9883 31.8965 34.9062 32.1914 34.8477 32.4766C34.793 32.7656 34.7656 33.0234 34.7656 33.25C34.7656 33.3945 34.7773 33.5098 34.8008 33.5957C34.8281 33.6816 34.8594 33.748 34.8945 33.7949C34.9336 33.8418 34.9746 33.873 35.0176 33.8887C35.0645 33.9043 35.1074 33.9121 35.1465 33.9121C35.2676 33.9121 35.373 33.8633 35.4629 33.7656C35.5527 33.668 35.6289 33.5371 35.6914 33.373C35.7539 33.2129 35.8047 33.0273 35.8438 32.8164C35.8828 32.6055 35.9121 32.3867 35.9316 32.1602C35.9512 31.9375 35.9648 31.7148 35.9727 31.4922C35.9805 31.2695 35.9844 31.0645 35.9844 30.877C35.9844 30.709 35.9844 30.541 35.9844 30.373C35.9844 30.2051 35.9805 30.0332 35.9727 29.8574ZM38.9082 23.4004C38.9082 23.5488 38.8555 23.6758 38.75 23.7812C38.6484 23.8828 38.5234 23.9336 38.375 23.9336C38.2266 23.9336 38.0996 23.8828 37.9941 23.7812C37.8926 23.6758 37.8418 23.5488 37.8418 23.4004C37.8418 23.3262 37.8555 23.2578 37.8828 23.1953C37.9102 23.1289 37.9473 23.0723 37.9941 23.0254C38.0449 22.9746 38.1016 22.9355 38.1641 22.9082C38.2305 22.8809 38.3008 22.8672 38.375 22.8672C38.4492 22.8672 38.5176 22.8809 38.5801 22.9082C38.6465 22.9355 38.7031 22.9746 38.75 23.0254C38.8008 23.0723 38.8398 23.1289 38.8672 23.1953C38.8945 23.2578 38.9082 23.3262 38.9082 23.4004ZM37.959 26.834C37.959 26.2715 37.9941 25.7109 38.0645 25.1523C38.0723 25.0977 38.0957 25.0508 38.1348 25.0117C38.1777 24.9688 38.2324 24.9473 38.2988 24.9473C38.3574 24.9473 38.4062 24.9707 38.4453 25.0176C38.4844 25.0605 38.5039 25.1113 38.5039 25.1699C38.5039 25.1934 38.498 25.2637 38.4863 25.3809C38.4785 25.498 38.4668 25.6387 38.4512 25.8027C38.4395 25.9629 38.4277 26.1348 38.416 26.3184C38.4082 26.498 38.4043 26.6641 38.4043 26.8164C38.4043 27.0234 38.4238 27.1914 38.4629 27.3203C38.5059 27.4453 38.5586 27.543 38.6211 27.6133C38.6875 27.6836 38.7559 27.7305 38.8262 27.7539C38.9004 27.7773 38.9707 27.7891 39.0371 27.7891C39.1465 27.7891 39.2598 27.75 39.377 27.6719C39.4941 27.5938 39.6133 27.4844 39.7344 27.3438C39.8594 27.2031 39.9844 27.0352 40.1094 26.8398C40.2344 26.6406 40.3574 26.4199 40.4785 26.1777C40.498 26.1387 40.5254 26.1094 40.5605 26.0898C40.5957 26.0664 40.6348 26.0547 40.6777 26.0547C40.7402 26.0547 40.791 26.0781 40.8301 26.125C40.873 26.1719 40.8945 26.2227 40.8945 26.2773C40.8945 26.3164 40.8867 26.3496 40.8711 26.377C40.8242 26.4668 40.7656 26.5762 40.6953 26.7051C40.625 26.834 40.5449 26.9668 40.4551 27.1035C40.3652 27.2402 40.2656 27.377 40.1562 27.5137C40.0508 27.6465 39.9375 27.7676 39.8164 27.877C39.6953 27.9824 39.5684 28.0684 39.4355 28.1348C39.3027 28.2012 39.168 28.2344 39.0312 28.2344C38.8555 28.2344 38.7012 28.1973 38.5684 28.123C38.4355 28.0488 38.3223 27.9492 38.2285 27.8242C38.1387 27.6992 38.0703 27.5527 38.0234 27.3848C37.9805 27.2129 37.959 27.0293 37.959 26.834ZM38.5801 23.4004C38.5801 23.3457 38.5586 23.2988 38.5156 23.2598C38.4766 23.2168 38.4297 23.1953 38.375 23.1953C38.3203 23.1953 38.2734 23.2168 38.2344 23.2598C38.1953 23.2988 38.1758 23.3457 38.1758 23.4004C38.1758 23.4551 38.1953 23.502 38.2344 23.541C38.2734 23.5801 38.3203 23.5996 38.375 23.5996C38.4297 23.5996 38.4766 23.5801 38.5156 23.541C38.5586 23.502 38.5801 23.4551 38.5801 23.4004ZM44.3047 26.377C44.2812 26.4199 44.2402 26.498 44.1816 26.6113C44.127 26.7246 44.0508 26.8535 43.9531 26.998C43.8594 27.1387 43.7461 27.2852 43.6133 27.4375C43.4805 27.5898 43.3281 27.7305 43.1562 27.8594C42.9844 27.9844 42.791 28.0879 42.5762 28.1699C42.3652 28.252 42.1348 28.293 41.8848 28.293C41.6621 28.293 41.4648 28.252 41.293 28.1699C41.1211 28.0918 40.9746 27.9805 40.8535 27.8359C40.7324 27.6875 40.6406 27.5137 40.5781 27.3145C40.5156 27.1152 40.4844 26.8945 40.4844 26.6523C40.4844 26.418 40.5176 26.1992 40.584 25.9961C40.6504 25.7891 40.7402 25.6094 40.8535 25.457C40.9707 25.3047 41.1055 25.1855 41.2578 25.0996C41.4102 25.0098 41.5723 24.9648 41.7441 24.9648C41.873 24.9648 41.9902 24.9883 42.0957 25.0352C42.2012 25.0781 42.2891 25.1367 42.3594 25.2109C42.4336 25.2852 42.4902 25.3672 42.5293 25.457C42.5723 25.5469 42.5938 25.6367 42.5938 25.7266C42.5938 25.8125 42.582 25.8926 42.5586 25.9668C42.5391 26.041 42.5117 26.1074 42.4766 26.166C42.4453 26.2207 42.4082 26.2656 42.3652 26.3008C42.3223 26.332 42.2793 26.3477 42.2363 26.3477C42.1699 26.3477 42.1152 26.3262 42.0723 26.2832C42.0332 26.2402 42.0137 26.1875 42.0137 26.125C42.0137 26.0938 42.0195 26.0664 42.0312 26.043C42.0469 26.0195 42.0625 25.9961 42.0781 25.9727C42.0977 25.9453 42.1133 25.9141 42.125 25.8789C42.1406 25.8398 42.1484 25.791 42.1484 25.7324C42.1484 25.6504 42.1094 25.5762 42.0312 25.5098C41.957 25.4434 41.8613 25.4102 41.7441 25.4102C41.6348 25.4102 41.5293 25.4434 41.4277 25.5098C41.3301 25.5762 41.2441 25.666 41.1699 25.7793C41.0957 25.8887 41.0352 26.0195 40.9883 26.1719C40.9453 26.3203 40.9238 26.4785 40.9238 26.6465C40.9238 26.8066 40.9434 26.959 40.9824 27.1035C41.0215 27.248 41.0801 27.377 41.1582 27.4902C41.2363 27.5996 41.334 27.6875 41.4512 27.7539C41.5723 27.8203 41.7148 27.8535 41.8789 27.8535C42.0898 27.8535 42.2852 27.8164 42.4648 27.7422C42.6445 27.6641 42.8086 27.5664 42.957 27.4492C43.1055 27.332 43.2363 27.2051 43.3496 27.0684C43.4629 26.9277 43.5586 26.7969 43.6367 26.6758C43.7188 26.5508 43.7812 26.4434 43.8242 26.3535C43.8711 26.2598 43.8984 26.2012 43.9062 26.1777C43.9219 26.1387 43.9473 26.1094 43.9824 26.0898C44.0215 26.0664 44.0625 26.0547 44.1055 26.0547C44.1719 26.0547 44.2246 26.0781 44.2637 26.125C44.3066 26.1719 44.3281 26.2246 44.3281 26.2832C44.3281 26.3066 44.3203 26.3379 44.3047 26.377Z" fill="black"/>
</svg>
